<mxfile host="app.diagrams.net" modified="2023-12-20T06:33:04.484Z" agent="Mozilla/5.0 (Windows NT 10.0; Win64; x64) AppleWebKit/537.36 (KHTML, like Gecko) Chrome/120.0.0.0 Safari/537.36 Edg/120.0.0.0" etag="8ARxnjRcbPmviC2clg6e" version="22.1.11" type="github">
  <diagram id="R2lEEEUBdFMjLlhIrx00" name="Page-1">
    <mxGraphModel dx="1112" dy="531" grid="1" gridSize="10" guides="1" tooltips="1" connect="1" arrows="1" fold="1" page="1" pageScale="1" pageWidth="850" pageHeight="1100" math="0" shadow="0" extFonts="Permanent Marker^https://fonts.googleapis.com/css?family=Permanent+Marker">
      <root>
        <mxCell id="0" />
        <mxCell id="1" parent="0" />
        <mxCell id="RSQ5P2lmplUpSJP9pWTw-2" value="вход" style="ellipse;whiteSpace=wrap;html=1;labelBackgroundColor=none;" vertex="1" parent="1">
          <mxGeometry x="554" y="285" width="120" height="80" as="geometry" />
        </mxCell>
        <mxCell id="RSQ5P2lmplUpSJP9pWTw-3" value="регистрация" style="ellipse;whiteSpace=wrap;html=1;labelBackgroundColor=none;" vertex="1" parent="1">
          <mxGeometry x="740" y="495" width="120" height="80" as="geometry" />
        </mxCell>
        <mxCell id="RSQ5P2lmplUpSJP9pWTw-4" value="Просматривайте мои заказы" style="ellipse;whiteSpace=wrap;html=1;labelBackgroundColor=none;" vertex="1" parent="1">
          <mxGeometry x="1340" y="355" width="120" height="80" as="geometry" />
        </mxCell>
        <mxCell id="RSQ5P2lmplUpSJP9pWTw-5" value="Запуск приложения" style="ellipse;whiteSpace=wrap;html=1;labelBackgroundColor=none;" vertex="1" parent="1">
          <mxGeometry x="1000" y="250" width="120" height="80" as="geometry" />
        </mxCell>
        <mxCell id="RSQ5P2lmplUpSJP9pWTw-6" value="удаление профиля" style="ellipse;whiteSpace=wrap;html=1;labelBackgroundColor=none;" vertex="1" parent="1">
          <mxGeometry x="580" y="580" width="120" height="80" as="geometry" />
        </mxCell>
        <mxCell id="RSQ5P2lmplUpSJP9pWTw-7" value="Номер телефона для подтверждения" style="ellipse;whiteSpace=wrap;html=1;labelBackgroundColor=none;" vertex="1" parent="1">
          <mxGeometry x="490" y="490" width="120" height="80" as="geometry" />
        </mxCell>
        <mxCell id="RSQ5P2lmplUpSJP9pWTw-8" value="Просмотр каталога продукции" style="ellipse;whiteSpace=wrap;html=1;labelBackgroundColor=none;" vertex="1" parent="1">
          <mxGeometry x="1050" y="365" width="120" height="80" as="geometry" />
        </mxCell>
        <mxCell id="RSQ5P2lmplUpSJP9pWTw-12" value="Сделайте заказ" style="ellipse;whiteSpace=wrap;html=1;labelBackgroundColor=none;" vertex="1" parent="1">
          <mxGeometry x="1460" y="445" width="140" height="70" as="geometry" />
        </mxCell>
        <mxCell id="RSQ5P2lmplUpSJP9pWTw-13" value="Добавить продукт" style="ellipse;whiteSpace=wrap;html=1;labelBackgroundColor=none;" vertex="1" parent="1">
          <mxGeometry x="1820" y="445" width="140" height="70" as="geometry" />
        </mxCell>
        <mxCell id="RSQ5P2lmplUpSJP9pWTw-14" value="Извлеките продукт" style="ellipse;whiteSpace=wrap;html=1;labelBackgroundColor=none;" vertex="1" parent="1">
          <mxGeometry x="1820" y="530" width="140" height="70" as="geometry" />
        </mxCell>
        <mxCell id="RSQ5P2lmplUpSJP9pWTw-18" value="Заполнение профиля" style="ellipse;whiteSpace=wrap;html=1;labelBackgroundColor=none;" vertex="1" parent="1">
          <mxGeometry x="350" y="685" width="140" height="70" as="geometry" />
        </mxCell>
        <mxCell id="RSQ5P2lmplUpSJP9pWTw-20" value="Выберите тип оплаты" style="ellipse;whiteSpace=wrap;html=1;labelBackgroundColor=none;" vertex="1" parent="1">
          <mxGeometry x="1820" y="365" width="140" height="70" as="geometry" />
        </mxCell>
        <mxCell id="RSQ5P2lmplUpSJP9pWTw-22" value="Работаю с моими заказами" style="ellipse;whiteSpace=wrap;html=1;labelBackgroundColor=none;" vertex="1" parent="1">
          <mxGeometry x="900" y="535" width="140" height="70" as="geometry" />
        </mxCell>
        <mxCell id="RSQ5P2lmplUpSJP9pWTw-24" value="Забрать заказ" style="ellipse;whiteSpace=wrap;html=1;labelBackgroundColor=none;" vertex="1" parent="1">
          <mxGeometry x="1380" y="535" width="140" height="75" as="geometry" />
        </mxCell>
        <mxCell id="RSQ5P2lmplUpSJP9pWTw-26" value="Связь с технической поддержкой" style="ellipse;whiteSpace=wrap;html=1;labelBackgroundColor=none;" vertex="1" parent="1">
          <mxGeometry x="1010" y="645" width="140" height="70" as="geometry" />
        </mxCell>
        <mxCell id="RSQ5P2lmplUpSJP9pWTw-28" value="Отправить заказ" style="ellipse;whiteSpace=wrap;html=1;labelBackgroundColor=none;" vertex="1" parent="1">
          <mxGeometry x="990" y="735" width="140" height="70" as="geometry" />
        </mxCell>
        <mxCell id="RSQ5P2lmplUpSJP9pWTw-29" value="Отправить сообщение" style="ellipse;whiteSpace=wrap;html=1;labelBackgroundColor=none;" vertex="1" parent="1">
          <mxGeometry x="1350" y="610" width="140" height="70" as="geometry" />
        </mxCell>
        <mxCell id="RSQ5P2lmplUpSJP9pWTw-31" value="Удалить сообщение" style="ellipse;whiteSpace=wrap;html=1;labelBackgroundColor=none;" vertex="1" parent="1">
          <mxGeometry x="1350" y="755" width="140" height="70" as="geometry" />
        </mxCell>
        <mxCell id="RSQ5P2lmplUpSJP9pWTw-33" value="Общение с покупателем" style="ellipse;whiteSpace=wrap;html=1;labelBackgroundColor=none;" vertex="1" parent="1">
          <mxGeometry x="654" y="824" width="140" height="70" as="geometry" />
        </mxCell>
        <mxCell id="RSQ5P2lmplUpSJP9pWTw-34" value="Отправить сообщение" style="ellipse;whiteSpace=wrap;html=1;labelBackgroundColor=none;" vertex="1" parent="1">
          <mxGeometry x="355" y="770" width="140" height="70" as="geometry" />
        </mxCell>
        <mxCell id="RSQ5P2lmplUpSJP9pWTw-37" value="история заказов" style="ellipse;whiteSpace=wrap;html=1;labelBackgroundColor=none;" vertex="1" parent="1">
          <mxGeometry x="980" y="980" width="140" height="70" as="geometry" />
        </mxCell>
        <mxCell id="RSQ5P2lmplUpSJP9pWTw-38" value="Работа с сотрудниками" style="ellipse;whiteSpace=wrap;html=1;labelBackgroundColor=none;" vertex="1" parent="1">
          <mxGeometry x="663.5" y="1000" width="140" height="70" as="geometry" />
        </mxCell>
        <mxCell id="RSQ5P2lmplUpSJP9pWTw-39" value="Добавить сотрудника" style="ellipse;whiteSpace=wrap;html=1;labelBackgroundColor=none;" vertex="1" parent="1">
          <mxGeometry x="355" y="1000" width="140" height="70" as="geometry" />
        </mxCell>
        <mxCell id="RSQ5P2lmplUpSJP9pWTw-40" value="Уволить сотрудника" style="ellipse;whiteSpace=wrap;html=1;labelBackgroundColor=none;" vertex="1" parent="1">
          <mxGeometry x="355" y="1170" width="140" height="70" as="geometry" />
        </mxCell>
        <mxCell id="RSQ5P2lmplUpSJP9pWTw-43" value="Просмотреть всех сотрудников" style="ellipse;whiteSpace=wrap;html=1;labelBackgroundColor=none;" vertex="1" parent="1">
          <mxGeometry x="355" y="1085" width="140" height="70" as="geometry" />
        </mxCell>
        <mxCell id="RSQ5P2lmplUpSJP9pWTw-45" value="Удалить заказ" style="ellipse;whiteSpace=wrap;html=1;labelBackgroundColor=none;" vertex="1" parent="1">
          <mxGeometry x="1350" y="900" width="140" height="70" as="geometry" />
        </mxCell>
        <mxCell id="RSQ5P2lmplUpSJP9pWTw-46" value="Работа с заказами" style="ellipse;whiteSpace=wrap;html=1;labelBackgroundColor=none;" vertex="1" parent="1">
          <mxGeometry x="1050" y="879" width="140" height="70" as="geometry" />
        </mxCell>
        <mxCell id="RSQ5P2lmplUpSJP9pWTw-49" value="Изменить порядок" style="ellipse;whiteSpace=wrap;html=1;labelBackgroundColor=none;" vertex="1" parent="1">
          <mxGeometry x="1350" y="830" width="140" height="70" as="geometry" />
        </mxCell>
        <mxCell id="RSQ5P2lmplUpSJP9pWTw-50" value="Редактировать сообщение" style="ellipse;whiteSpace=wrap;html=1;labelBackgroundColor=none;" vertex="1" parent="1">
          <mxGeometry x="355" y="920" width="140" height="70" as="geometry" />
        </mxCell>
        <mxCell id="RSQ5P2lmplUpSJP9pWTw-53" value="Редактировать сообщение" style="ellipse;whiteSpace=wrap;html=1;labelBackgroundColor=none;" vertex="1" parent="1">
          <mxGeometry x="1350" y="680" width="140" height="70" as="geometry" />
        </mxCell>
        <mxCell id="RSQ5P2lmplUpSJP9pWTw-55" value="редактирование профиля" style="ellipse;whiteSpace=wrap;html=1;direction=east;labelBackgroundColor=none;" vertex="1" parent="1">
          <mxGeometry x="350" y="580" width="120" height="80" as="geometry" />
        </mxCell>
        <mxCell id="RSQ5P2lmplUpSJP9pWTw-56" value="" style="endArrow=none;html=1;rounded=0;exitX=1;exitY=0.5;exitDx=0;exitDy=0;labelBackgroundColor=none;fontColor=default;entryX=0;entryY=0;entryDx=0;entryDy=0;" edge="1" parent="1" source="RSQ5P2lmplUpSJP9pWTw-6" target="RSQ5P2lmplUpSJP9pWTw-99">
          <mxGeometry width="50" height="50" relative="1" as="geometry">
            <mxPoint x="1060" y="675" as="sourcePoint" />
            <mxPoint x="800" y="620" as="targetPoint" />
          </mxGeometry>
        </mxCell>
        <mxCell id="RSQ5P2lmplUpSJP9pWTw-57" value="Просмотреть все профили" style="ellipse;whiteSpace=wrap;html=1;labelBackgroundColor=none;" vertex="1" parent="1">
          <mxGeometry x="1220" y="1050" width="140" height="70" as="geometry" />
        </mxCell>
        <mxCell id="RSQ5P2lmplUpSJP9pWTw-58" value="Работа с профилем" style="ellipse;whiteSpace=wrap;html=1;labelBackgroundColor=none;" vertex="1" parent="1">
          <mxGeometry x="920" y="1085" width="140" height="70" as="geometry" />
        </mxCell>
        <mxCell id="RSQ5P2lmplUpSJP9pWTw-59" value="Удалить профиль" style="ellipse;whiteSpace=wrap;html=1;labelBackgroundColor=none;" vertex="1" parent="1">
          <mxGeometry x="1220" y="1120" width="140" height="70" as="geometry" />
        </mxCell>
        <mxCell id="RSQ5P2lmplUpSJP9pWTw-60" value="Редактировать профиль" style="ellipse;whiteSpace=wrap;html=1;labelBackgroundColor=none;" vertex="1" parent="1">
          <mxGeometry x="1220" y="1190" width="140" height="70" as="geometry" />
        </mxCell>
        <mxCell id="RSQ5P2lmplUpSJP9pWTw-65" value="" style="endArrow=none;html=1;rounded=0;exitX=1;exitY=0.5;exitDx=0;exitDy=0;labelBackgroundColor=none;fontColor=default;entryX=0;entryY=0.5;entryDx=0;entryDy=0;" edge="1" parent="1" source="RSQ5P2lmplUpSJP9pWTw-38" target="RSQ5P2lmplUpSJP9pWTw-103">
          <mxGeometry width="50" height="50" relative="1" as="geometry">
            <mxPoint x="1040" y="855" as="sourcePoint" />
            <mxPoint x="810" y="1100" as="targetPoint" />
          </mxGeometry>
        </mxCell>
        <mxCell id="RSQ5P2lmplUpSJP9pWTw-66" value="" style="endArrow=none;html=1;rounded=0;entryX=1;entryY=0.5;entryDx=0;entryDy=0;labelBackgroundColor=none;fontColor=default;exitX=0;exitY=0.5;exitDx=0;exitDy=0;" edge="1" parent="1" source="RSQ5P2lmplUpSJP9pWTw-102" target="RSQ5P2lmplUpSJP9pWTw-33">
          <mxGeometry width="50" height="50" relative="1" as="geometry">
            <mxPoint x="780" y="910" as="sourcePoint" />
            <mxPoint x="1090" y="745" as="targetPoint" />
          </mxGeometry>
        </mxCell>
        <mxCell id="RSQ5P2lmplUpSJP9pWTw-70" value="" style="endArrow=none;html=1;rounded=0;entryX=0;entryY=1;entryDx=0;entryDy=0;labelBackgroundColor=none;fontColor=default;exitX=1;exitY=0.5;exitDx=0;exitDy=0;" edge="1" parent="1" source="RSQ5P2lmplUpSJP9pWTw-81" target="RSQ5P2lmplUpSJP9pWTw-5">
          <mxGeometry width="50" height="50" relative="1" as="geometry">
            <mxPoint x="940" y="360" as="sourcePoint" />
            <mxPoint x="1110" y="465" as="targetPoint" />
          </mxGeometry>
        </mxCell>
        <mxCell id="RSQ5P2lmplUpSJP9pWTw-71" value="" style="endArrow=none;html=1;rounded=0;entryX=0;entryY=0.5;entryDx=0;entryDy=0;labelBackgroundColor=none;fontColor=default;exitX=1;exitY=0.5;exitDx=0;exitDy=0;" edge="1" parent="1" source="RSQ5P2lmplUpSJP9pWTw-81" target="RSQ5P2lmplUpSJP9pWTw-8">
          <mxGeometry width="50" height="50" relative="1" as="geometry">
            <mxPoint x="920" y="420" as="sourcePoint" />
            <mxPoint x="1110" y="465" as="targetPoint" />
          </mxGeometry>
        </mxCell>
        <mxCell id="RSQ5P2lmplUpSJP9pWTw-72" value="" style="endArrow=none;html=1;rounded=0;exitX=0.5;exitY=0;exitDx=0;exitDy=0;labelBackgroundColor=none;fontColor=default;entryX=0;entryY=1;entryDx=0;entryDy=0;" edge="1" parent="1" source="RSQ5P2lmplUpSJP9pWTw-3" target="RSQ5P2lmplUpSJP9pWTw-81">
          <mxGeometry width="50" height="50" relative="1" as="geometry">
            <mxPoint x="770" y="515" as="sourcePoint" />
            <mxPoint x="840" y="440" as="targetPoint" />
          </mxGeometry>
        </mxCell>
        <mxCell id="RSQ5P2lmplUpSJP9pWTw-73" value="" style="endArrow=none;html=1;rounded=0;exitX=1;exitY=0.5;exitDx=0;exitDy=0;labelBackgroundColor=none;fontColor=default;entryX=0;entryY=0.75;entryDx=0;entryDy=0;" edge="1" parent="1" source="RSQ5P2lmplUpSJP9pWTw-2" target="RSQ5P2lmplUpSJP9pWTw-81">
          <mxGeometry width="50" height="50" relative="1" as="geometry">
            <mxPoint x="770" y="515" as="sourcePoint" />
            <mxPoint x="810" y="400" as="targetPoint" />
          </mxGeometry>
        </mxCell>
        <mxCell id="RSQ5P2lmplUpSJP9pWTw-74" value="" style="endArrow=none;html=1;rounded=0;exitX=0;exitY=0.5;exitDx=0;exitDy=0;labelBackgroundColor=none;fontColor=default;entryX=1;entryY=1;entryDx=0;entryDy=0;" edge="1" parent="1" source="RSQ5P2lmplUpSJP9pWTw-46" target="RSQ5P2lmplUpSJP9pWTw-102">
          <mxGeometry width="50" height="50" relative="1" as="geometry">
            <mxPoint x="770" y="915" as="sourcePoint" />
            <mxPoint x="970" y="870" as="targetPoint" />
          </mxGeometry>
        </mxCell>
        <mxCell id="RSQ5P2lmplUpSJP9pWTw-75" value="" style="endArrow=none;html=1;rounded=0;exitX=0;exitY=0.5;exitDx=0;exitDy=0;labelBackgroundColor=none;fontColor=default;entryX=1;entryY=0;entryDx=0;entryDy=0;" edge="1" parent="1" source="RSQ5P2lmplUpSJP9pWTw-28" target="RSQ5P2lmplUpSJP9pWTw-102">
          <mxGeometry width="50" height="50" relative="1" as="geometry">
            <mxPoint x="770" y="915" as="sourcePoint" />
            <mxPoint x="930" y="820" as="targetPoint" />
          </mxGeometry>
        </mxCell>
        <mxCell id="RSQ5P2lmplUpSJP9pWTw-76" value="" style="endArrow=none;html=1;rounded=0;entryX=0;entryY=1;entryDx=0;entryDy=0;labelBackgroundColor=none;fontColor=default;exitX=1;exitY=0;exitDx=0;exitDy=0;" edge="1" parent="1" source="RSQ5P2lmplUpSJP9pWTw-103" target="RSQ5P2lmplUpSJP9pWTw-37">
          <mxGeometry width="50" height="50" relative="1" as="geometry">
            <mxPoint x="970" y="1030" as="sourcePoint" />
            <mxPoint x="820" y="1065" as="targetPoint" />
          </mxGeometry>
        </mxCell>
        <mxCell id="RSQ5P2lmplUpSJP9pWTw-77" value="" style="endArrow=none;html=1;rounded=0;entryX=0.5;entryY=0;entryDx=0;entryDy=0;labelBackgroundColor=none;fontColor=default;exitX=1;exitY=1;exitDx=0;exitDy=0;" edge="1" parent="1" source="RSQ5P2lmplUpSJP9pWTw-103" target="RSQ5P2lmplUpSJP9pWTw-58">
          <mxGeometry width="50" height="50" relative="1" as="geometry">
            <mxPoint x="930" y="1060" as="sourcePoint" />
            <mxPoint x="820" y="1065" as="targetPoint" />
          </mxGeometry>
        </mxCell>
        <mxCell id="RSQ5P2lmplUpSJP9pWTw-78" value="" style="endArrow=none;html=1;rounded=0;entryX=0.5;entryY=1;entryDx=0;entryDy=0;labelBackgroundColor=none;fontColor=default;" edge="1" parent="1" target="RSQ5P2lmplUpSJP9pWTw-22">
          <mxGeometry width="50" height="50" relative="1" as="geometry">
            <mxPoint x="920" y="620" as="sourcePoint" />
            <mxPoint x="820" y="565" as="targetPoint" />
          </mxGeometry>
        </mxCell>
        <mxCell id="RSQ5P2lmplUpSJP9pWTw-79" value="" style="endArrow=none;html=1;rounded=0;entryX=0;entryY=0.5;entryDx=0;entryDy=0;labelBackgroundColor=none;fontColor=default;exitX=1;exitY=1;exitDx=0;exitDy=0;" edge="1" parent="1" source="RSQ5P2lmplUpSJP9pWTw-99" target="RSQ5P2lmplUpSJP9pWTw-26">
          <mxGeometry width="50" height="50" relative="1" as="geometry">
            <mxPoint x="960" y="670" as="sourcePoint" />
            <mxPoint x="820" y="565" as="targetPoint" />
          </mxGeometry>
        </mxCell>
        <mxCell id="RSQ5P2lmplUpSJP9pWTw-80" value="" style="endArrow=none;html=1;rounded=0;entryX=1;entryY=1;entryDx=0;entryDy=0;" edge="1" parent="1" target="RSQ5P2lmplUpSJP9pWTw-55">
          <mxGeometry width="50" height="50" relative="1" as="geometry">
            <mxPoint x="820" y="660" as="sourcePoint" />
            <mxPoint x="970" y="615" as="targetPoint" />
            <Array as="points">
              <mxPoint x="690" y="680" />
            </Array>
          </mxGeometry>
        </mxCell>
        <mxCell id="RSQ5P2lmplUpSJP9pWTw-81" value="user" style="whiteSpace=wrap;html=1;align=center;fontSize=16;" vertex="1" parent="1">
          <mxGeometry x="830" y="375" width="100" height="40" as="geometry" />
        </mxCell>
        <mxCell id="RSQ5P2lmplUpSJP9pWTw-82" value="пренадлежит" style="shape=rhombus;perimeter=rhombusPerimeter;whiteSpace=wrap;html=1;align=center;fontSize=16;" vertex="1" parent="1">
          <mxGeometry x="490" y="400" width="120" height="60" as="geometry" />
        </mxCell>
        <mxCell id="RSQ5P2lmplUpSJP9pWTw-83" value="" style="endArrow=none;html=1;rounded=0;exitX=0;exitY=0.5;exitDx=0;exitDy=0;labelBackgroundColor=none;fontColor=default;entryX=0.067;entryY=0.467;entryDx=0;entryDy=0;entryPerimeter=0;" edge="1" parent="1" source="RSQ5P2lmplUpSJP9pWTw-2" target="RSQ5P2lmplUpSJP9pWTw-82">
          <mxGeometry width="50" height="50" relative="1" as="geometry">
            <mxPoint x="684" y="335" as="sourcePoint" />
            <mxPoint x="840" y="415" as="targetPoint" />
          </mxGeometry>
        </mxCell>
        <mxCell id="RSQ5P2lmplUpSJP9pWTw-84" value="" style="endArrow=none;html=1;rounded=0;exitX=1;exitY=0.5;exitDx=0;exitDy=0;labelBackgroundColor=none;fontColor=default;entryX=0.5;entryY=0;entryDx=0;entryDy=0;" edge="1" parent="1" source="RSQ5P2lmplUpSJP9pWTw-82" target="RSQ5P2lmplUpSJP9pWTw-7">
          <mxGeometry width="50" height="50" relative="1" as="geometry">
            <mxPoint x="694" y="345" as="sourcePoint" />
            <mxPoint x="850" y="425" as="targetPoint" />
          </mxGeometry>
        </mxCell>
        <mxCell id="RSQ5P2lmplUpSJP9pWTw-85" value="имеет" style="shape=rhombus;perimeter=rhombusPerimeter;whiteSpace=wrap;html=1;align=center;fontSize=16;" vertex="1" parent="1">
          <mxGeometry x="630" y="500" width="90" height="60" as="geometry" />
        </mxCell>
        <mxCell id="RSQ5P2lmplUpSJP9pWTw-86" value="" style="endArrow=none;html=1;rounded=0;exitX=1;exitY=0.5;exitDx=0;exitDy=0;labelBackgroundColor=none;fontColor=default;entryX=0;entryY=0.5;entryDx=0;entryDy=0;" edge="1" parent="1" source="RSQ5P2lmplUpSJP9pWTw-7" target="RSQ5P2lmplUpSJP9pWTw-85">
          <mxGeometry width="50" height="50" relative="1" as="geometry">
            <mxPoint x="620" y="440" as="sourcePoint" />
            <mxPoint x="560" y="500" as="targetPoint" />
          </mxGeometry>
        </mxCell>
        <mxCell id="RSQ5P2lmplUpSJP9pWTw-87" value="" style="endArrow=none;html=1;rounded=0;exitX=0;exitY=0.5;exitDx=0;exitDy=0;labelBackgroundColor=none;fontColor=default;entryX=1;entryY=0.5;entryDx=0;entryDy=0;" edge="1" parent="1" source="RSQ5P2lmplUpSJP9pWTw-3" target="RSQ5P2lmplUpSJP9pWTw-85">
          <mxGeometry width="50" height="50" relative="1" as="geometry">
            <mxPoint x="630" y="450" as="sourcePoint" />
            <mxPoint x="570" y="510" as="targetPoint" />
          </mxGeometry>
        </mxCell>
        <mxCell id="RSQ5P2lmplUpSJP9pWTw-88" value="может" style="shape=rhombus;perimeter=rhombusPerimeter;whiteSpace=wrap;html=1;align=center;fontSize=16;" vertex="1" parent="1">
          <mxGeometry x="540" y="830" width="90" height="60" as="geometry" />
        </mxCell>
        <mxCell id="RSQ5P2lmplUpSJP9pWTw-89" value="" style="endArrow=none;html=1;rounded=0;entryX=1;entryY=0.5;entryDx=0;entryDy=0;exitX=0;exitY=1;exitDx=0;exitDy=0;" edge="1" parent="1" source="RSQ5P2lmplUpSJP9pWTw-99" target="RSQ5P2lmplUpSJP9pWTw-18">
          <mxGeometry width="50" height="50" relative="1" as="geometry">
            <mxPoint x="820" y="700" as="sourcePoint" />
            <mxPoint x="462" y="658" as="targetPoint" />
            <Array as="points">
              <mxPoint x="790" y="725" />
            </Array>
          </mxGeometry>
        </mxCell>
        <mxCell id="RSQ5P2lmplUpSJP9pWTw-91" value="" style="endArrow=none;html=1;rounded=0;exitX=0;exitY=0.5;exitDx=0;exitDy=0;entryX=1;entryY=0.5;entryDx=0;entryDy=0;labelBackgroundColor=none;fontColor=default;" edge="1" parent="1" source="RSQ5P2lmplUpSJP9pWTw-88" target="RSQ5P2lmplUpSJP9pWTw-50">
          <mxGeometry width="50" height="50" relative="1" as="geometry">
            <mxPoint x="1000" y="780" as="sourcePoint" />
            <mxPoint x="885" y="869" as="targetPoint" />
          </mxGeometry>
        </mxCell>
        <mxCell id="RSQ5P2lmplUpSJP9pWTw-92" value="" style="endArrow=none;html=1;rounded=0;exitX=0;exitY=0.5;exitDx=0;exitDy=0;entryX=1;entryY=0.5;entryDx=0;entryDy=0;labelBackgroundColor=none;fontColor=default;" edge="1" parent="1" source="RSQ5P2lmplUpSJP9pWTw-88" target="RSQ5P2lmplUpSJP9pWTw-34">
          <mxGeometry width="50" height="50" relative="1" as="geometry">
            <mxPoint x="550" y="870" as="sourcePoint" />
            <mxPoint x="505" y="965" as="targetPoint" />
          </mxGeometry>
        </mxCell>
        <mxCell id="RSQ5P2lmplUpSJP9pWTw-93" value="" style="endArrow=none;html=1;rounded=0;exitX=0;exitY=0.5;exitDx=0;exitDy=0;entryX=1;entryY=0.5;entryDx=0;entryDy=0;labelBackgroundColor=none;fontColor=default;" edge="1" parent="1" source="RSQ5P2lmplUpSJP9pWTw-33" target="RSQ5P2lmplUpSJP9pWTw-88">
          <mxGeometry width="50" height="50" relative="1" as="geometry">
            <mxPoint x="560" y="880" as="sourcePoint" />
            <mxPoint x="515" y="975" as="targetPoint" />
          </mxGeometry>
        </mxCell>
        <mxCell id="RSQ5P2lmplUpSJP9pWTw-94" value="может" style="shape=rhombus;perimeter=rhombusPerimeter;whiteSpace=wrap;html=1;align=center;fontSize=16;" vertex="1" parent="1">
          <mxGeometry x="540" y="1090" width="90" height="60" as="geometry" />
        </mxCell>
        <mxCell id="RSQ5P2lmplUpSJP9pWTw-95" value="" style="endArrow=none;html=1;rounded=0;exitX=0;exitY=0.5;exitDx=0;exitDy=0;entryX=1;entryY=0.5;entryDx=0;entryDy=0;labelBackgroundColor=none;fontColor=default;" edge="1" parent="1" source="RSQ5P2lmplUpSJP9pWTw-94" target="RSQ5P2lmplUpSJP9pWTw-40">
          <mxGeometry width="50" height="50" relative="1" as="geometry">
            <mxPoint x="550" y="870" as="sourcePoint" />
            <mxPoint x="505" y="965" as="targetPoint" />
          </mxGeometry>
        </mxCell>
        <mxCell id="RSQ5P2lmplUpSJP9pWTw-96" value="" style="endArrow=none;html=1;rounded=0;exitX=0;exitY=0.5;exitDx=0;exitDy=0;entryX=0.979;entryY=0.614;entryDx=0;entryDy=0;labelBackgroundColor=none;fontColor=default;entryPerimeter=0;" edge="1" parent="1" source="RSQ5P2lmplUpSJP9pWTw-94" target="RSQ5P2lmplUpSJP9pWTw-39">
          <mxGeometry width="50" height="50" relative="1" as="geometry">
            <mxPoint x="550" y="1130" as="sourcePoint" />
            <mxPoint x="505" y="1215" as="targetPoint" />
          </mxGeometry>
        </mxCell>
        <mxCell id="RSQ5P2lmplUpSJP9pWTw-97" value="" style="endArrow=none;html=1;rounded=0;exitX=0;exitY=0.5;exitDx=0;exitDy=0;entryX=1;entryY=0.5;entryDx=0;entryDy=0;labelBackgroundColor=none;fontColor=default;" edge="1" parent="1" source="RSQ5P2lmplUpSJP9pWTw-94" target="RSQ5P2lmplUpSJP9pWTw-43">
          <mxGeometry width="50" height="50" relative="1" as="geometry">
            <mxPoint x="560" y="1140" as="sourcePoint" />
            <mxPoint x="515" y="1225" as="targetPoint" />
          </mxGeometry>
        </mxCell>
        <mxCell id="RSQ5P2lmplUpSJP9pWTw-98" value="" style="endArrow=none;html=1;rounded=0;exitX=1;exitY=0.5;exitDx=0;exitDy=0;entryX=0;entryY=0.5;entryDx=0;entryDy=0;labelBackgroundColor=none;fontColor=default;" edge="1" parent="1" source="RSQ5P2lmplUpSJP9pWTw-94" target="RSQ5P2lmplUpSJP9pWTw-38">
          <mxGeometry width="50" height="50" relative="1" as="geometry">
            <mxPoint x="570" y="1150" as="sourcePoint" />
            <mxPoint x="525" y="1235" as="targetPoint" />
          </mxGeometry>
        </mxCell>
        <mxCell id="RSQ5P2lmplUpSJP9pWTw-99" value="авторизованый user" style="whiteSpace=wrap;html=1;align=center;fontSize=16;" vertex="1" parent="1">
          <mxGeometry x="820" y="615" width="120" height="40" as="geometry" />
        </mxCell>
        <mxCell id="RSQ5P2lmplUpSJP9pWTw-100" value="" style="endArrow=none;html=1;rounded=0;exitX=0.5;exitY=1;exitDx=0;exitDy=0;labelBackgroundColor=none;fontColor=default;entryX=0.5;entryY=0;entryDx=0;entryDy=0;" edge="1" parent="1" source="RSQ5P2lmplUpSJP9pWTw-81" target="RSQ5P2lmplUpSJP9pWTw-99">
          <mxGeometry width="50" height="50" relative="1" as="geometry">
            <mxPoint x="710" y="630" as="sourcePoint" />
            <mxPoint x="830" y="625" as="targetPoint" />
          </mxGeometry>
        </mxCell>
        <mxCell id="RSQ5P2lmplUpSJP9pWTw-101" value="" style="endArrow=none;html=1;rounded=0;exitX=0.5;exitY=0;exitDx=0;exitDy=0;labelBackgroundColor=none;fontColor=default;entryX=0.5;entryY=1;entryDx=0;entryDy=0;" edge="1" parent="1" source="RSQ5P2lmplUpSJP9pWTw-102" target="RSQ5P2lmplUpSJP9pWTw-99">
          <mxGeometry width="50" height="50" relative="1" as="geometry">
            <mxPoint x="720" y="640" as="sourcePoint" />
            <mxPoint x="840" y="635" as="targetPoint" />
          </mxGeometry>
        </mxCell>
        <mxCell id="RSQ5P2lmplUpSJP9pWTw-102" value="менеджер" style="whiteSpace=wrap;html=1;align=center;fontSize=16;" vertex="1" parent="1">
          <mxGeometry x="825" y="839" width="100" height="40" as="geometry" />
        </mxCell>
        <mxCell id="RSQ5P2lmplUpSJP9pWTw-103" value="администратор" style="whiteSpace=wrap;html=1;align=center;fontSize=16;" vertex="1" parent="1">
          <mxGeometry x="830" y="1015" width="100" height="40" as="geometry" />
        </mxCell>
        <mxCell id="RSQ5P2lmplUpSJP9pWTw-104" value="" style="endArrow=none;html=1;rounded=0;entryX=0.5;entryY=0;entryDx=0;entryDy=0;labelBackgroundColor=none;fontColor=default;exitX=0.5;exitY=1;exitDx=0;exitDy=0;" edge="1" parent="1" source="RSQ5P2lmplUpSJP9pWTw-102" target="RSQ5P2lmplUpSJP9pWTw-103">
          <mxGeometry width="50" height="50" relative="1" as="geometry">
            <mxPoint x="940" y="1025" as="sourcePoint" />
            <mxPoint x="1011" y="1000" as="targetPoint" />
          </mxGeometry>
        </mxCell>
        <mxCell id="RSQ5P2lmplUpSJP9pWTw-107" value="может" style="shape=rhombus;perimeter=rhombusPerimeter;whiteSpace=wrap;html=1;align=center;fontSize=16;" vertex="1" parent="1">
          <mxGeometry x="1080" y="540" width="90" height="60" as="geometry" />
        </mxCell>
        <mxCell id="RSQ5P2lmplUpSJP9pWTw-108" value="" style="endArrow=none;html=1;rounded=0;entryX=0;entryY=0.5;entryDx=0;entryDy=0;labelBackgroundColor=none;fontColor=default;exitX=1;exitY=0.5;exitDx=0;exitDy=0;" edge="1" parent="1" source="RSQ5P2lmplUpSJP9pWTw-107" target="RSQ5P2lmplUpSJP9pWTw-4">
          <mxGeometry width="50" height="50" relative="1" as="geometry">
            <mxPoint x="940" y="405" as="sourcePoint" />
            <mxPoint x="1060" y="415" as="targetPoint" />
          </mxGeometry>
        </mxCell>
        <mxCell id="RSQ5P2lmplUpSJP9pWTw-109" value="" style="endArrow=none;html=1;rounded=0;entryX=0;entryY=0.5;entryDx=0;entryDy=0;labelBackgroundColor=none;fontColor=default;exitX=1;exitY=0.5;exitDx=0;exitDy=0;fontStyle=1" edge="1" parent="1" source="RSQ5P2lmplUpSJP9pWTw-107" target="RSQ5P2lmplUpSJP9pWTw-12">
          <mxGeometry width="50" height="50" relative="1" as="geometry">
            <mxPoint x="950" y="415" as="sourcePoint" />
            <mxPoint x="1070" y="425" as="targetPoint" />
          </mxGeometry>
        </mxCell>
        <mxCell id="RSQ5P2lmplUpSJP9pWTw-110" value="" style="endArrow=none;html=1;rounded=0;entryX=0;entryY=0.5;entryDx=0;entryDy=0;labelBackgroundColor=none;fontColor=default;exitX=1;exitY=0.5;exitDx=0;exitDy=0;" edge="1" parent="1" source="RSQ5P2lmplUpSJP9pWTw-107" target="RSQ5P2lmplUpSJP9pWTw-24">
          <mxGeometry width="50" height="50" relative="1" as="geometry">
            <mxPoint x="960" y="425" as="sourcePoint" />
            <mxPoint x="1080" y="435" as="targetPoint" />
          </mxGeometry>
        </mxCell>
        <mxCell id="RSQ5P2lmplUpSJP9pWTw-111" value="" style="endArrow=none;html=1;rounded=0;entryX=0;entryY=0.5;entryDx=0;entryDy=0;labelBackgroundColor=none;fontColor=default;exitX=1;exitY=0.5;exitDx=0;exitDy=0;" edge="1" parent="1" source="RSQ5P2lmplUpSJP9pWTw-22" target="RSQ5P2lmplUpSJP9pWTw-107">
          <mxGeometry width="50" height="50" relative="1" as="geometry">
            <mxPoint x="970" y="435" as="sourcePoint" />
            <mxPoint x="1090" y="445" as="targetPoint" />
          </mxGeometry>
        </mxCell>
        <mxCell id="RSQ5P2lmplUpSJP9pWTw-112" value="может" style="shape=rhombus;perimeter=rhombusPerimeter;whiteSpace=wrap;html=1;align=center;fontSize=16;" vertex="1" parent="1">
          <mxGeometry x="1660" y="450" width="90" height="60" as="geometry" />
        </mxCell>
        <mxCell id="RSQ5P2lmplUpSJP9pWTw-113" value="" style="endArrow=none;html=1;rounded=0;entryX=0;entryY=0.5;entryDx=0;entryDy=0;labelBackgroundColor=none;fontColor=default;exitX=1;exitY=0.5;exitDx=0;exitDy=0;fontStyle=1" edge="1" parent="1" source="RSQ5P2lmplUpSJP9pWTw-112" target="RSQ5P2lmplUpSJP9pWTw-20">
          <mxGeometry width="50" height="50" relative="1" as="geometry">
            <mxPoint x="1180" y="580" as="sourcePoint" />
            <mxPoint x="1470" y="490" as="targetPoint" />
          </mxGeometry>
        </mxCell>
        <mxCell id="RSQ5P2lmplUpSJP9pWTw-114" value="" style="endArrow=none;html=1;rounded=0;entryX=0;entryY=0.5;entryDx=0;entryDy=0;labelBackgroundColor=none;fontColor=default;exitX=1;exitY=0.5;exitDx=0;exitDy=0;fontStyle=1" edge="1" parent="1" source="RSQ5P2lmplUpSJP9pWTw-112" target="RSQ5P2lmplUpSJP9pWTw-13">
          <mxGeometry width="50" height="50" relative="1" as="geometry">
            <mxPoint x="1760" y="490" as="sourcePoint" />
            <mxPoint x="1830" y="410" as="targetPoint" />
          </mxGeometry>
        </mxCell>
        <mxCell id="RSQ5P2lmplUpSJP9pWTw-115" value="" style="endArrow=none;html=1;rounded=0;entryX=0;entryY=0.5;entryDx=0;entryDy=0;labelBackgroundColor=none;fontColor=default;fontStyle=1" edge="1" parent="1" target="RSQ5P2lmplUpSJP9pWTw-14">
          <mxGeometry width="50" height="50" relative="1" as="geometry">
            <mxPoint x="1750" y="480" as="sourcePoint" />
            <mxPoint x="1840" y="420" as="targetPoint" />
          </mxGeometry>
        </mxCell>
        <mxCell id="RSQ5P2lmplUpSJP9pWTw-116" value="" style="endArrow=none;html=1;rounded=0;entryX=0;entryY=0.5;entryDx=0;entryDy=0;labelBackgroundColor=none;fontColor=default;exitX=1;exitY=0.5;exitDx=0;exitDy=0;fontStyle=1" edge="1" parent="1" source="RSQ5P2lmplUpSJP9pWTw-12" target="RSQ5P2lmplUpSJP9pWTw-112">
          <mxGeometry width="50" height="50" relative="1" as="geometry">
            <mxPoint x="1780" y="510" as="sourcePoint" />
            <mxPoint x="1850" y="430" as="targetPoint" />
          </mxGeometry>
        </mxCell>
        <mxCell id="RSQ5P2lmplUpSJP9pWTw-117" value="может" style="shape=rhombus;perimeter=rhombusPerimeter;whiteSpace=wrap;html=1;align=center;fontSize=16;" vertex="1" parent="1">
          <mxGeometry x="1205" y="670" width="90" height="60" as="geometry" />
        </mxCell>
        <mxCell id="RSQ5P2lmplUpSJP9pWTw-119" value="" style="endArrow=none;html=1;rounded=0;exitX=0;exitY=0.5;exitDx=0;exitDy=0;labelBackgroundColor=none;fontColor=default;entryX=1;entryY=0.5;entryDx=0;entryDy=0;" edge="1" parent="1" source="RSQ5P2lmplUpSJP9pWTw-117" target="RSQ5P2lmplUpSJP9pWTw-26">
          <mxGeometry width="50" height="50" relative="1" as="geometry">
            <mxPoint x="1080" y="920" as="sourcePoint" />
            <mxPoint x="945" y="899" as="targetPoint" />
          </mxGeometry>
        </mxCell>
        <mxCell id="RSQ5P2lmplUpSJP9pWTw-120" value="" style="endArrow=none;html=1;rounded=0;exitX=1;exitY=0.5;exitDx=0;exitDy=0;labelBackgroundColor=none;fontColor=default;entryX=0;entryY=0.5;entryDx=0;entryDy=0;" edge="1" parent="1" source="RSQ5P2lmplUpSJP9pWTw-117" target="RSQ5P2lmplUpSJP9pWTw-31">
          <mxGeometry width="50" height="50" relative="1" as="geometry">
            <mxPoint x="1215" y="710" as="sourcePoint" />
            <mxPoint x="1160" y="690" as="targetPoint" />
          </mxGeometry>
        </mxCell>
        <mxCell id="RSQ5P2lmplUpSJP9pWTw-121" value="" style="endArrow=none;html=1;rounded=0;exitX=0;exitY=0.5;exitDx=0;exitDy=0;labelBackgroundColor=none;fontColor=default;entryX=1;entryY=0.5;entryDx=0;entryDy=0;" edge="1" parent="1" source="RSQ5P2lmplUpSJP9pWTw-29" target="RSQ5P2lmplUpSJP9pWTw-117">
          <mxGeometry width="50" height="50" relative="1" as="geometry">
            <mxPoint x="1225" y="720" as="sourcePoint" />
            <mxPoint x="1170" y="700" as="targetPoint" />
          </mxGeometry>
        </mxCell>
        <mxCell id="RSQ5P2lmplUpSJP9pWTw-122" value="" style="endArrow=none;html=1;rounded=0;exitX=0;exitY=0.5;exitDx=0;exitDy=0;labelBackgroundColor=none;fontColor=default;entryX=1;entryY=0.5;entryDx=0;entryDy=0;" edge="1" parent="1" source="RSQ5P2lmplUpSJP9pWTw-53" target="RSQ5P2lmplUpSJP9pWTw-117">
          <mxGeometry width="50" height="50" relative="1" as="geometry">
            <mxPoint x="1235" y="730" as="sourcePoint" />
            <mxPoint x="1180" y="710" as="targetPoint" />
          </mxGeometry>
        </mxCell>
        <mxCell id="RSQ5P2lmplUpSJP9pWTw-123" value="может" style="shape=rhombus;perimeter=rhombusPerimeter;whiteSpace=wrap;html=1;align=center;fontSize=16;" vertex="1" parent="1">
          <mxGeometry x="1230" y="879" width="90" height="60" as="geometry" />
        </mxCell>
        <mxCell id="RSQ5P2lmplUpSJP9pWTw-125" value="" style="endArrow=none;html=1;rounded=0;exitX=1;exitY=0.5;exitDx=0;exitDy=0;labelBackgroundColor=none;fontColor=default;entryX=0;entryY=0.5;entryDx=0;entryDy=0;" edge="1" parent="1" source="RSQ5P2lmplUpSJP9pWTw-46" target="RSQ5P2lmplUpSJP9pWTw-123">
          <mxGeometry width="50" height="50" relative="1" as="geometry">
            <mxPoint x="1305" y="710" as="sourcePoint" />
            <mxPoint x="1360" y="800" as="targetPoint" />
          </mxGeometry>
        </mxCell>
        <mxCell id="RSQ5P2lmplUpSJP9pWTw-126" value="" style="endArrow=none;html=1;rounded=0;exitX=1;exitY=0.5;exitDx=0;exitDy=0;labelBackgroundColor=none;fontColor=default;entryX=0;entryY=0.5;entryDx=0;entryDy=0;" edge="1" parent="1" source="RSQ5P2lmplUpSJP9pWTw-123" target="RSQ5P2lmplUpSJP9pWTw-49">
          <mxGeometry width="50" height="50" relative="1" as="geometry">
            <mxPoint x="1200" y="924" as="sourcePoint" />
            <mxPoint x="1240" y="919" as="targetPoint" />
          </mxGeometry>
        </mxCell>
        <mxCell id="RSQ5P2lmplUpSJP9pWTw-127" value="" style="endArrow=none;html=1;rounded=0;exitX=1;exitY=0.5;exitDx=0;exitDy=0;labelBackgroundColor=none;fontColor=default;entryX=0;entryY=0.5;entryDx=0;entryDy=0;" edge="1" parent="1" source="RSQ5P2lmplUpSJP9pWTw-123" target="RSQ5P2lmplUpSJP9pWTw-45">
          <mxGeometry width="50" height="50" relative="1" as="geometry">
            <mxPoint x="1210" y="934" as="sourcePoint" />
            <mxPoint x="1250" y="929" as="targetPoint" />
          </mxGeometry>
        </mxCell>
        <mxCell id="RSQ5P2lmplUpSJP9pWTw-128" value="может" style="shape=rhombus;perimeter=rhombusPerimeter;whiteSpace=wrap;html=1;align=center;fontSize=16;" vertex="1" parent="1">
          <mxGeometry x="1090" y="1125" width="90" height="60" as="geometry" />
        </mxCell>
        <mxCell id="RSQ5P2lmplUpSJP9pWTw-129" value="" style="endArrow=none;html=1;rounded=0;exitX=0;exitY=0.5;exitDx=0;exitDy=0;labelBackgroundColor=none;fontColor=default;entryX=1;entryY=0.5;entryDx=0;entryDy=0;" edge="1" parent="1" source="RSQ5P2lmplUpSJP9pWTw-128" target="RSQ5P2lmplUpSJP9pWTw-58">
          <mxGeometry width="50" height="50" relative="1" as="geometry">
            <mxPoint x="1330" y="919" as="sourcePoint" />
            <mxPoint x="1360" y="945" as="targetPoint" />
          </mxGeometry>
        </mxCell>
        <mxCell id="RSQ5P2lmplUpSJP9pWTw-130" value="" style="endArrow=none;html=1;rounded=0;exitX=0.007;exitY=0.6;exitDx=0;exitDy=0;labelBackgroundColor=none;fontColor=default;entryX=1;entryY=0.5;entryDx=0;entryDy=0;exitPerimeter=0;" edge="1" parent="1" source="RSQ5P2lmplUpSJP9pWTw-57" target="RSQ5P2lmplUpSJP9pWTw-128">
          <mxGeometry width="50" height="50" relative="1" as="geometry">
            <mxPoint x="1100" y="1165" as="sourcePoint" />
            <mxPoint x="1070" y="1130" as="targetPoint" />
          </mxGeometry>
        </mxCell>
        <mxCell id="RSQ5P2lmplUpSJP9pWTw-131" value="" style="endArrow=none;html=1;rounded=0;exitX=0;exitY=0.5;exitDx=0;exitDy=0;labelBackgroundColor=none;fontColor=default;entryX=1;entryY=0.5;entryDx=0;entryDy=0;" edge="1" parent="1" source="RSQ5P2lmplUpSJP9pWTw-60" target="RSQ5P2lmplUpSJP9pWTw-128">
          <mxGeometry width="50" height="50" relative="1" as="geometry">
            <mxPoint x="1231" y="1102" as="sourcePoint" />
            <mxPoint x="1190" y="1165" as="targetPoint" />
          </mxGeometry>
        </mxCell>
        <mxCell id="RSQ5P2lmplUpSJP9pWTw-132" value="" style="endArrow=none;html=1;rounded=0;exitX=0;exitY=0.5;exitDx=0;exitDy=0;labelBackgroundColor=none;fontColor=default;entryX=1;entryY=0.5;entryDx=0;entryDy=0;" edge="1" parent="1" source="RSQ5P2lmplUpSJP9pWTw-59" target="RSQ5P2lmplUpSJP9pWTw-128">
          <mxGeometry width="50" height="50" relative="1" as="geometry">
            <mxPoint x="1230" y="1235" as="sourcePoint" />
            <mxPoint x="1190" y="1165" as="targetPoint" />
          </mxGeometry>
        </mxCell>
      </root>
    </mxGraphModel>
  </diagram>
</mxfile>
